<svg width="16" height="16" viewBox="0 0 16 16" fill="none" xmlns="http://www.w3.org/2000/svg">
<path d="M8.00004 7.66666C7.55801 7.66666 7.13409 7.49107 6.82153 7.17851C6.50897 6.86595 6.33337 6.44202 6.33337 6C6.33337 5.55797 6.50897 5.13404 6.82153 4.82148C7.13409 4.50892 7.55801 4.33333 8.00004 4.33333C8.44207 4.33333 8.86599 4.50892 9.17855 4.82148C9.49111 5.13404 9.66671 5.55797 9.66671 6C9.66671 6.21886 9.6236 6.43559 9.53984 6.6378C9.45608 6.84001 9.33332 7.02374 9.17855 7.17851C9.02379 7.33327 8.84006 7.45604 8.63785 7.53979C8.43564 7.62355 8.21891 7.66666 8.00004 7.66666ZM8.00004 1.33333C6.76236 1.33333 5.57538 1.82499 4.70021 2.70016C3.82504 3.57533 3.33337 4.76232 3.33337 6C3.33337 9.5 8.00004 14.6667 8.00004 14.6667C8.00004 14.6667 12.6667 9.5 12.6667 6C12.6667 4.76232 12.175 3.57533 11.2999 2.70016C10.4247 1.82499 9.23772 1.33333 8.00004 1.33333Z" fill="white"/>
</svg>
