<svg width="14" height="14" viewBox="0 0 14 14" fill="none" xmlns="http://www.w3.org/2000/svg">
<path d="M6.19333 10.5867C8.08 9.62667 9.62667 8.08 10.5867 6.19333L9.12 4.72667C8.93333 4.54 8.88 4.28 8.95333 4.04667C9.2 3.3 9.33333 2.5 9.33333 1.66667C9.33333 1.48985 9.40357 1.32029 9.5286 1.19526C9.65362 1.07024 9.82319 0.999999 10 0.999999L12.3333 0.999999C12.5101 0.999999 12.6797 1.07024 12.8047 1.19526C12.9298 1.32029 13 1.48985 13 1.66667C13 4.67245 11.806 7.55513 9.68054 9.68054C7.55513 11.806 4.67245 13 1.66667 13C1.48986 13 1.32029 12.9298 1.19526 12.8047C1.07024 12.6797 1 12.5101 1 12.3333L1 10C1 9.82319 1.07024 9.65362 1.19526 9.5286C1.32029 9.40357 1.48986 9.33333 1.66667 9.33333C2.5 9.33333 3.3 9.2 4.04667 8.95333C4.28 8.88 4.54 8.93333 4.72667 9.12L6.19333 10.5867Z" fill="white" stroke="white"/>
</svg>
